<svg xmlns="http://www.w3.org/2000/svg" viewBox="0 0 32 32" fill="none" width="32" height="32">
  
  <circle cx="16" cy="16" r="12" stroke="#ea580c" stroke-width="1.5" stroke-dasharray="4 2" opacity="0.75"></circle>
  <circle cx="16" cy="16" r="6" stroke="#ea580c" stroke-width="1" opacity="0.40"></circle>
  <line x1="16" y1="2" x2="16" y2="6" stroke="#ea580c" stroke-width="1.5"></line>
  <line x1="16" y1="26" x2="16" y2="30" stroke="#ea580c" stroke-width="1.5"></line>
  <line x1="2" y1="16" x2="6" y2="16" stroke="#ea580c" stroke-width="1.5"></line>
  <line x1="26" y1="16" x2="30" y2="16" stroke="#ea580c" stroke-width="1.5"></line>
  
  <path d="M16 8C16 8 10 13 10 18C10 21.3137 12.6863 24 16 24C19.3137 24 22 21.3137 22 18C22 13 16 8 16 8Z" fill="#059669"></path>
  <path d="M16 8C16 13 18.5 17 21 19.5" stroke="#d1fae5" stroke-width="1" stroke-linecap="round" opacity="0.9"></path>
  <path d="M16 24V14" stroke="#10b981" stroke-width="1.2" stroke-linecap="round"></path>
</svg>